<svg xmlns="http://www.w3.org/2000/svg" width="20" height="24" viewBox="0 0 20 24">
  <g id="accepted" opacity="0.68">
    <path id="Path_74" data-name="Path 74" d="M336.5,14.659h4.638l-5.872-5.872v4.638A1.235,1.235,0,0,0,336.5,14.659Z" transform="translate(-321.57 -8.356)" fill="#fff"/>
    <path id="Path_75" data-name="Path 75" d="M163.313,222.8a4.779,4.779,0,1,0,4.779,4.779A4.785,4.785,0,0,0,163.313,222.8Zm2.191,4.185-2.228,2.228a.735.735,0,0,1-1.04,0l-1.114-1.114a.736.736,0,1,1,1.04-1.04l.594.594,1.708-1.708a.736.736,0,1,1,1.04,1.04Z" transform="translate(-153.313 -212.652)" fill="#fff"/>
    <path id="Path_76" data-name="Path 76" d="M63.226,7.431a2.624,2.624,0,0,1-2.655-2.586V0H50.855A2.624,2.624,0,0,0,48.2,2.586V21.414A2.624,2.624,0,0,0,50.855,24h14.69A2.624,2.624,0,0,0,68.2,21.414V7.431ZM58.2,20.987a6.063,6.063,0,0,1-6.134-5.975,6.136,6.136,0,0,1,12.268,0A6.063,6.063,0,0,1,58.2,20.987Z" transform="translate(-48.2 0)" fill="#fff"/>
  </g>
</svg>
