<svg xmlns="http://www.w3.org/2000/svg" width="26" height="26" viewBox="0 0 26 26">
  <g id="round-account-button-with-user-inside" opacity="0.68">
    <g id="account-circle">
      <path id="Path_63" data-name="Path 63" d="M13,0A13,13,0,1,0,26,13,13.038,13.038,0,0,0,13,0Zm0,3.9a3.83,3.83,0,0,1,3.9,3.9A3.83,3.83,0,0,1,13,11.7,3.83,3.83,0,0,1,9.1,7.8,3.83,3.83,0,0,1,13,3.9Zm0,18.46A9.484,9.484,0,0,1,5.2,18.2c0-2.6,5.2-4.03,7.8-4.03s7.8,1.43,7.8,4.03A9.484,9.484,0,0,1,13,22.36Z" fill="#fff"/>
    </g>
  </g>
</svg>
