<svg xmlns="http://www.w3.org/2000/svg" width="24" height="20" viewBox="0 0 24 20">
  <g id="laptop" opacity="0.68">
    <path id="Path_57" data-name="Path 57" d="M23.593,396.158h-8.58l-.338.814a.51.51,0,0,1-.47.316H9.833a.51.51,0,0,1-.47-.316l-.338-.814H.407a.409.409,0,0,0-.407.411v1.54a1.532,1.532,0,0,0,1.525,1.539h20.95A1.532,1.532,0,0,0,24,398.109v-1.54A.409.409,0,0,0,23.593,396.158Z" transform="translate(0 -379.648)" fill="#fff"/>
    <path id="Path_58" data-name="Path 58" d="M195.155,236.828v-.983l-2.919,1.069a.7.7,0,0,1-.488,0l-2.988-1.094v1.008A6.6,6.6,0,0,0,195.155,236.828Z" transform="translate(-179.942 -226.774)" fill="#fff"/>
    <path id="Path_59" data-name="Path 59" d="M158.258,150.851l-5.164-1.891-5.164,1.891,5.164,1.891Z" transform="translate(-141.044 -143.978)" fill="#fff"/>
    <path id="Path_60" data-name="Path 60" d="M29.758,58.286l.107.258h3.177l.107-.258a1.4,1.4,0,0,1,1.3-.871h8.062V44.146a2.058,2.058,0,0,0-2.045-2.066H22.445A2.058,2.058,0,0,0,20.4,44.146V57.414h8.062a1.4,1.4,0,0,1,1.3.871ZM26.88,52.659V50.727l-.724-.268v2.184a.7.7,0,1,1-1.405,0v-2.7l-.663-.245a.712.712,0,0,1,0-1.333l7.155-2.647a.7.7,0,0,1,.483,0l7.155,2.647a.712.712,0,0,1,0,1.333l-2.86,1.058v1.906a.711.711,0,0,1-.326.6,7.841,7.841,0,0,1-8.489,0,.711.711,0,0,1-.326-.6Z" transform="translate(-19.435 -42.08)" fill="#fff"/>
  </g>
</svg>
