<svg xmlns="http://www.w3.org/2000/svg" width="24" height="22" viewBox="0 0 24 22">
  <g id="feedback" opacity="0.68">
    <g id="Group_21149" data-name="Group 21149">
      <g id="Group_21148" data-name="Group 21148">
        <path id="Path_2800" data-name="Path 2800" d="M21.652,30.2a.5.5,0,0,0-.544.108l-3.081,3.086a1.49,1.49,0,0,1-.764.41l-2.5.5a1.5,1.5,0,0,1-1.761-1.765l.44-2.206H5.49a.5.5,0,0,1,0-1h8.378c.017-.019.027-.044.046-.062l1.935-1.938H5.49a.5.5,0,0,1,0-1H16.47a.486.486,0,0,1,.28.1l3.239-3.244a2.883,2.883,0,0,1,.983-.641.5.5,0,0,0,.09-.882,1.99,1.99,0,0,0-1.1-.331H2a2,2,0,0,0-2,2v19.5a.5.5,0,0,0,.308.462A.492.492,0,0,0,.5,43.33a.5.5,0,0,0,.353-.146L5.7,38.33H19.964a2,2,0,0,0,2-2V30.658A.5.5,0,0,0,21.652,30.2ZM11.479,33.33H5.49a.5.5,0,0,1,0-1h5.989a.5.5,0,0,1,0,1Z" transform="translate(0 -21.33)" fill="#fff"/>
        <path id="Path_2801" data-name="Path 2801" d="M306.911,64a1.964,1.964,0,0,0-1.381.572l-6.208,6.207a.507.507,0,0,0-.139.26l-.51,2.551a.51.51,0,0,0,.5.61.521.521,0,0,0,.1-.01l2.549-.51a.507.507,0,0,0,.261-.139l6.209-6.208h0A1.952,1.952,0,0,0,306.911,64Zm-.809,4.08-1.319-1.319.721-.721,1.319,1.319Z" transform="translate(-284.864 -61.96)" fill="#fff"/>
      </g>
    </g>
  </g>
</svg>
