<svg xmlns="http://www.w3.org/2000/svg" width="24" height="24" viewBox="0 0 24 24">
  <g id="increased-revenue" opacity="0.68">
    <g id="Layer_1_87_">
      <g id="Group_20409" data-name="Group 20409">
        <path id="Path_64" data-name="Path 64" d="M40.475,8.792c0-.442-.449-.571-.8-.649V9.429C40.066,9.4,40.475,9.22,40.475,8.792Z" transform="translate(-19.397 -3.993)" fill="#fff"/>
        <path id="Path_65" data-name="Path 65" d="M38.288,4.185c-.442.013-.728.273-.728.552,0,.325.242.513.729.61V4.185Z" transform="translate(-18.399 -1.974)" fill="#fff"/>
        <path id="Path_66" data-name="Path 66" d="M35.776,7.856a3.928,3.928,0,1,0-3.929-3.928A3.932,3.932,0,0,0,35.776,7.856ZM34.049,2.913a1.422,1.422,0,0,1,1.546-1.364V1.2a.2.2,0,1,1,.389,0v.346c.506.013,1.546.331,1.546.969a.39.39,0,0,1-.41.4c-.423,0-.416-.695-1.136-.708V3.446c.858.182,1.617.435,1.617,1.436,0,.87-.649,1.312-1.617,1.371v.4a.2.2,0,1,1-.389,0v-.4c-1.1-.027-1.643-.683-1.643-1.2a.374.374,0,0,1,.4-.409c.728,0,.162.9,1.241.942V4.231C34.632,4.056,34.049,3.634,34.049,2.913Z" transform="translate(-15.704)" fill="#fff"/>
        <path id="Path_67" data-name="Path 67" d="M5.325,33.113H1.939A1.129,1.129,0,0,0,.81,34.242v5.08a1.129,1.129,0,0,0,1.129,1.129H5.325a1.128,1.128,0,0,0,1.129-1.129v-5.08A1.128,1.128,0,0,0,5.325,33.113Z" transform="translate(-0.532 -16.452)" fill="#fff"/>
        <path id="Path_68" data-name="Path 68" d="M21.889,25.637H18.5a1.129,1.129,0,0,0-1.129,1.129V35.8A1.129,1.129,0,0,0,18.5,36.927h3.387A1.129,1.129,0,0,0,23.019,35.8V26.765A1.129,1.129,0,0,0,21.889,25.637Z" transform="translate(-8.6 -12.927)" fill="#fff"/>
        <path id="Path_69" data-name="Path 69" d="M38.456,17.091H35.07a1.129,1.129,0,0,0-1.129,1.129V31.766A1.129,1.129,0,0,0,35.07,32.9h3.386a1.128,1.128,0,0,0,1.129-1.129V18.22A1.129,1.129,0,0,0,38.456,17.091Z" transform="translate(-16.692 -8.896)" fill="#fff"/>
        <path id="Path_70" data-name="Path 70" d="M15.815,10.438l-2.8-.586a.564.564,0,0,0-.613.818l.621,1.168L.59,18.25A.564.564,0,0,0,.85,19.315a.555.555,0,0,0,.258-.063l12.441-6.418.57,1.072a.564.564,0,0,0,.5.3h.029a.564.564,0,0,0,.494-.35L16.223,11.2a.562.562,0,0,0-.024-.478A.573.573,0,0,0,15.815,10.438Z" transform="translate(-0.285 -4.924)" fill="#fff"/>
      </g>
    </g>
  </g>
</svg>
