<svg id="Group_20404" data-name="Group 20404" xmlns="http://www.w3.org/2000/svg" width="120.467" height="85.179" viewBox="0 0 120.467 85.179">
  <path id="Path_24" data-name="Path 24" d="M193.286,253.173v10.559l-.051.025-9.372-5.279,9.423-5.3Zm18.895-10.584v31.778h0l-9.6-5.355V247.969Z" transform="translate(-123.617 -226.473)" fill="#fff" fill-rule="evenodd"/>
  <g id="Group_21" data-name="Group 21" transform="translate(31.879)">
    <path id="Path_25" data-name="Path 25" d="M169.509,255.811v.025l9.447,5.3,9.422-5.3v-.025l-9.422-5.431Z" transform="translate(-150.589 -229.136)" fill="#fff"/>
    <path id="Path_26" data-name="Path 26" d="M197.446,234.218,169.129,218.1l-28.368,16.116,9.6,5.381v-.025l18.769-10.66,18.718,10.66v.025Z" transform="translate(-140.761 -218.102)" fill="#fff"/>
  </g>
  <g id="Group_22" data-name="Group 22" transform="translate(31.879 32.005)">
    <path id="Path_27" data-name="Path 27" d="M178.969,277.315l9.4-5.3-9.4-5.279-9.422,5.279,9.422,5.279Z" transform="translate(-150.602 -266.731)" fill="#fff"/>
    <path id="Path_28" data-name="Path 28" d="M150.36,293.522V282.736l-9.6,5.38Z" transform="translate(-140.761 -272.202)" fill="#fff"/>
    <path id="Path_29" data-name="Path 29" d="M197.451,282.7l-18.718,10.609v-.025l-9.877-5.532v10.837l9.877,5.482L207.05,288.1Z" transform="translate(-150.366 -272.189)" fill="#fff"/>
  </g>
  <path id="Path_30" data-name="Path 30" d="M150.36,247.969v21.042l-9.6,5.355V242.589l9.6,5.38Zm9.346,15.788,9.422-5.279-9.447-5.3v10.559Z" transform="translate(-108.883 -226.473)" fill="#fff" fill-rule="evenodd"/>
  <path id="Path_31" data-name="Path 31" d="M101.873,325.96H92.325v14.192H95.2v-5.58h6.669c2.551,0,3.839-1.341,3.839-4.051v-.509C105.712,327.328,104.424,325.96,101.873,325.96Zm.96,4.56c0,.671-.3,1.019-.96,1.019H95.2v-2.521h6.669c.656,0,.96.322.96.992Z" transform="translate(-92.325 -254.973)" fill="#fff"/>
  <path id="Path_32" data-name="Path 32" d="M124.517,334.571c2.552,0,3.815-1.341,3.815-4.051v-.509c0-2.683-1.263-4.051-3.815-4.051h-9.548v14.192h2.88v-5.58H120l1.667,1.771,3.587,3.809h4.042l-5.254-5.58Zm-6.668-3.031v-2.521h6.668a.863.863,0,0,1,.96.992v.509c0,.671-.328,1.019-.96,1.019h-6.668Z" transform="translate(-100.066 -254.973)" fill="#fff"/>
  <path id="Path_33" data-name="Path 33" d="M146.126,325.96h-3.815q-4.774,0-4.774,5.07v4.051q0,5.07,4.774,5.07h3.815q4.774,0,4.774-5.07V331.03Q150.9,325.96,146.126,325.96Zm1.92,9.121c0,1.368-.632,2.039-1.92,2.039h-3.815c-1.263,0-1.894-.671-1.894-2.039V331.03q0-2.012,1.894-2.012h3.815c1.288,0,1.92.671,1.92,2.012Z" transform="translate(-107.781 -254.973)" fill="#fff"/>
  <path id="Path_34" data-name="Path 34" d="M171.241,334.974V325.96h2.88v14.192H172.1l-8.488-8.987v8.987h-2.854V325.96h2.021Z" transform="translate(-115.719 -254.973)" fill="#fff"/>
  <path id="Path_35" data-name="Path 35" d="M197.277,325.96v3.058H183.94V325.96Zm-9.978,5.58h9.043v3.031h-12.4V331.54Zm-.505,5.581h10.483v3.031H183.94V337.12Z" transform="translate(-123.643 -254.973)" fill="#fff" fill-rule="evenodd"/>
  <path id="Path_36" data-name="Path 36" d="M214.3,330.923l4.648-4.963h4.042l-6.669,7.109,6.669,7.082H218.95l-4.648-4.936-4.673,4.936h-4.042l6.694-7.082-6.694-7.109h4.042Z" transform="translate(-131.043 -254.973)" fill="#fff"/>
  <path id="Path_37" data-name="Path 37" d="M232.953,335.081V325.96h2.879v9.121c0,1.368.632,2.039,1.895,2.039h3.814c1.289,0,1.92-.671,1.92-2.039V325.96h2.854v9.121q0,5.07-4.774,5.07h-3.814Q232.953,340.152,232.953,335.081Z" transform="translate(-140.398 -254.973)" fill="#fff"/>
  <path id="Path_38" data-name="Path 38" d="M264.608,325.96c2.552,0,3.815,1.368,3.815,4.051h-2.854a.863.863,0,0,0-.96-.992H258.9c-.657,0-.96.322-.96.992v.509c0,.671.3,1.019.96,1.019h5.709c2.552,0,3.815,1.341,3.815,4.051v.51c0,2.71-1.263,4.051-3.815,4.051H258.9c-2.551,0-3.84-1.341-3.84-4.051h2.88c0,.671.3,1.02.96,1.02h5.709c.632,0,.96-.349.96-1.02v-.51c0-.671-.328-1.019-.96-1.019H258.9c-2.551,0-3.84-1.341-3.84-4.051v-.509c0-2.683,1.289-4.051,3.84-4.051Z" transform="translate(-147.956 -254.973)" fill="#fff"/>
</svg>
