<svg xmlns="http://www.w3.org/2000/svg" width="24" height="24" viewBox="0 0 24 24">
  <g id="icons8-shop" opacity="0.68">
    <path id="Path_24" data-name="Path 24" d="M6.312,2a2.452,2.452,0,0,0-2.4,1.8C3.313,6.8,2,12.2,2,12.8a2.4,2.4,0,0,0,2.4,2.4,2.106,2.106,0,0,0,1.688-.825A4.5,4.5,0,0,0,8.6,15.2a4.319,4.319,0,0,0,2.888-1.087A3.251,3.251,0,0,0,14,15.2a3.251,3.251,0,0,0,2.512-1.087A3.91,3.91,0,0,0,19.4,15.2a4.505,4.505,0,0,0,2.513-.825A2.292,2.292,0,0,0,23.6,15.2,2.4,2.4,0,0,0,26,12.8c0-.6-1.313-6-1.913-9A2.323,2.323,0,0,0,21.8,2ZM8,5.6h3.6l-1.087,5.288A1.964,1.964,0,0,1,8.6,12.8a1.94,1.94,0,0,1-1.687-.975C7.273,9.786,8,5.6,8,5.6Zm8.4,0H20s.727,4.186,1.087,6.225A1.94,1.94,0,0,1,19.4,12.8a1.964,1.964,0,0,1-1.913-1.912ZM3.2,16.4v6A3.619,3.619,0,0,0,6.8,26H21.2a3.619,3.619,0,0,0,3.6-3.6v-6H22.4v6a1.2,1.2,0,0,1-1.2,1.2H20V16.4H15.2v7.2H6.8a1.2,1.2,0,0,1-1.2-1.2v-6Zm4.8,0v4.8h4.8V16.4Z" transform="translate(-2 -2)" fill="#fff"/>
  </g>
</svg>
