<svg xmlns="http://www.w3.org/2000/svg" width="24" height="24" viewBox="0 0 24 24">
  <g id="Group_20413" data-name="Group 20413" opacity="0.68">
    <g id="notification">
      <g id="Group_20412" data-name="Group 20412" transform="translate(6.292 20.963)">
        <path id="Path_80" data-name="Path 80" d="M10.045,24.037A3.8,3.8,0,0,0,13.765,21H6.326A3.8,3.8,0,0,0,10.045,24.037Z" transform="translate(-6.326 -21)" fill="#fff"/>
      </g>
      <path id="Path_81" data-name="Path 81" d="M17.793,14.675c-.026,0-.051,0-.077,0a8.085,8.085,0,0,1-6.58-12.8V1.012a1.012,1.012,0,1,0-2.025,0V2.106A7.091,7.091,0,0,0,3.037,9.111v2.822A6.788,6.788,0,0,1,.62,17.13a1.771,1.771,0,0,0,1.152,3.117h16.7a1.771,1.771,0,0,0,1.142-3.125A6.791,6.791,0,0,1,17.793,14.675Z" transform="translate(0 0)" fill="#fff"/>
      <path id="Path_82" data-name="Path 82" d="M17.58,0a6.58,6.58,0,1,0,6.58,6.58A6.588,6.588,0,0,0,17.58,0Zm1.012,8.858a.759.759,0,1,1-1.519,0V5.568h-.506a.759.759,0,0,1,0-1.519h1.265a.76.76,0,0,1,.759.759Z" transform="translate(-0.161)" fill="#fff"/>
    </g>
    <circle id="Ellipse_1" data-name="Ellipse 1" cx="4.038" cy="4.038" r="4.038" transform="translate(14.231 2.414)" fill="#fff"/>
    <path id="settings" d="M6.624,2.743l-.549-.07a2.759,2.759,0,0,0-.166-.4l.339-.437a.434.434,0,0,0-.036-.578L5.752.8a.435.435,0,0,0-.58-.037L4.736,1.1a2.75,2.75,0,0,0-.4-.166L4.265.385A.437.437,0,0,0,3.831,0H3.177a.437.437,0,0,0-.434.385l-.07.549a2.718,2.718,0,0,0-.4.166L1.836.761A.434.434,0,0,0,1.258.8l-.46.46a.435.435,0,0,0-.037.58l.339.436a2.727,2.727,0,0,0-.166.4l-.548.07A.437.437,0,0,0,0,3.177v.654a.437.437,0,0,0,.385.434l.549.07a2.76,2.76,0,0,0,.166.4l-.339.437A.434.434,0,0,0,.8,5.751l.46.46a.436.436,0,0,0,.58.037l.436-.339a2.7,2.7,0,0,0,.4.166l.07.548a.437.437,0,0,0,.434.386h.654a.437.437,0,0,0,.434-.385l.07-.549a2.76,2.76,0,0,0,.4-.166l.437.339a.434.434,0,0,0,.578-.036l.46-.46a.435.435,0,0,0,.037-.58l-.339-.436a2.7,2.7,0,0,0,.166-.4l.548-.07a.437.437,0,0,0,.385-.434V3.177a.437.437,0,0,0-.384-.434ZM3.5,4.964A1.46,1.46,0,1,1,4.964,3.5,1.462,1.462,0,0,1,3.5,4.964Z" transform="translate(13.877 3.115)" fill="#0974df"/>
  </g>
</svg>
